<?xml version="1.0" standalone="no"?>
<!DOCTYPE svg PUBLIC "-//W3C//DTD SVG 20010904//EN"
 "http://www.w3.org/TR/2001/REC-SVG-20010904/DTD/svg10.dtd">
<svg version="1.0" xmlns="http://www.w3.org/2000/svg"
 width="300.000000pt" height="165.000000pt" viewBox="0 0 300.000000 165.000000"
 preserveAspectRatio="xMidYMid meet">
<metadata>
Created by potrace 1.10, written by Peter Selinger 2001-2011
</metadata>
<g transform="translate(0.000000,165.000000) scale(0.100000,-0.100000)"
fill="#000000" stroke="none">
<path d="M1110 1244 c-186 -39 -312 -122 -400 -260 -41 -65 -38 -73 11 -29 86
78 266 141 374 132 68 -5 102 -20 178 -77 29 -22 78 -54 111 -71 50 -27 66
-31 112 -27 67 6 104 31 122 83 17 52 6 101 -34 145 -91 101 -288 144 -474
104z m297 -38 c67 -21 142 -73 167 -115 39 -68 -12 -146 -94 -143 -49 2 -100
27 -200 97 -67 47 -86 54 -180 74 -58 11 -116 21 -130 20 l-25 -1 25 -8 25 -7
-30 -12 c-16 -7 -42 -15 -58 -18 -15 -3 -30 -10 -33 -14 -3 -5 -15 -9 -27 -9
-20 1 -19 4 13 30 19 17 42 30 52 30 10 0 17 6 15 13 -2 14 131 62 215 76 71
13 201 6 265 -13z"/>
<path d="M1700 1041 c-14 -28 13 -55 41 -41 22 12 25 30 7 48 -18 18 -36 15
-48 -7z"/>
<path d="M1745 963 c-9 -10 -35 -43 -58 -73 -55 -70 -112 -103 -181 -103 -42
0 -69 10 -156 56 -233 123 -410 138 -600 51 -106 -48 -169 -134 -170 -230 0
-85 25 -150 80 -205 27 -27 53 -49 57 -49 4 0 8 31 8 68 0 222 209 309 563
235 218 -45 387 -35 482 29 88 60 127 163 80 213 -28 30 -82 34 -105 8z m77
-30 c23 -21 23 -47 -2 -92 -37 -64 -141 -111 -201 -89 l-24 9 30 22 c43 31 87
76 115 117 38 55 52 61 82 33z m-697 -33 c45 -11 132 -46 200 -80 66 -34 133
-60 149 -60 31 0 133 -17 176 -30 19 -6 10 -9 -42 -15 -82 -9 -151 -2 -317 31
-159 32 -323 30 -409 -5 -99 -40 -164 -114 -178 -201 -10 -61 -21 -70 -48 -36
-45 54 -61 172 -32 239 28 67 109 124 228 158 83 23 175 23 273 -1z"/>
<path d="M1921 874 c-38 -48 -17 -106 41 -120 22 -5 34 0 59 25 25 25 30 37
25 59 -15 62 -88 83 -125 36z m78 -33 c8 -14 6 -23 -9 -36 -31 -28 -71 1 -56
40 8 21 53 19 65 -4z"/>
<path d="M2348 714 c-12 -11 -10 -114 2 -114 6 0 10 14 10 30 0 19 6 33 16 37
19 7 36 -15 30 -39 -2 -10 0 -21 6 -24 5 -4 8 9 6 32 -3 34 -7 39 -30 42 -18
2 -28 10 -30 24 -2 11 -6 16 -10 12z"/>
<path d="M2099 688 c-2 -17 0 -38 6 -65 4 -16 13 -23 28 -23 20 1 20 2 5 11
-10 5 -18 21 -18 34 0 14 7 25 18 28 16 4 16 5 0 6 -10 0 -18 6 -18 11 0 15
-20 12 -21 -2z"/>
<path d="M2167 673 c-13 -13 -7 -61 9 -67 24 -9 54 -7 54 4 0 5 -10 9 -21 7
-12 -1 -24 4 -26 11 -3 8 6 12 26 12 33 0 39 8 19 28 -13 13 -50 16 -61 5z"/>
<path d="M2262 668 c-27 -27 -6 -68 34 -68 13 0 26 5 29 11 4 6 -4 9 -22 7
-24 -3 -28 0 -28 22 0 22 4 25 28 22 18 -2 26 1 22 7 -8 15 -48 14 -63 -1z"/>
<path d="M890 583 c-28 -10 -59 -46 -65 -75 -14 -61 36 -118 103 -118 37 0 71
24 56 40 -8 8 -14 9 -18 1 -12 -19 -74 -13 -96 9 -57 57 19 148 92 109 14 -8
23 -8 31 0 7 7 0 15 -26 26 -38 16 -52 17 -77 8z"/>
<path d="M1039 585 c0 0 -1 -44 -2 -98 l-2 -97 73 0 c57 0 72 3 72 15 0 12
-13 15 -60 15 -60 0 -60 0 -60 30 0 29 1 30 50 30 28 0 50 5 50 10 0 6 -22 10
-50 10 -49 0 -50 1 -50 30 0 30 1 30 55 30 37 0 55 4 55 13 0 8 -20 12 -65 12
-36 0 -65 0 -66 0z"/>
<path d="M1220 488 c0 -84 2 -98 16 -98 12 0 15 7 12 30 -4 28 -2 30 28 30 26
0 37 -6 51 -30 9 -16 26 -30 36 -30 16 0 15 3 -7 33 -25 32 -25 33 -6 45 26
16 27 73 3 95 -11 9 -42 17 -76 19 l-57 3 0 -97z m106 64 c39 -26 8 -82 -46
-82 -29 0 -30 2 -30 45 0 44 1 45 33 45 17 0 37 -4 43 -8z"/>
<path d="M1417 583 c-1 -1 -1 -44 1 -97 l3 -96 70 0 c55 0 69 3 69 15 0 12
-13 15 -60 15 -60 0 -60 0 -60 30 0 29 1 30 50 30 28 0 50 5 50 10 0 6 -22 10
-50 10 -49 0 -50 1 -50 30 0 30 1 30 55 30 37 0 55 4 55 13 0 8 -20 12 -66 12
-36 0 -66 -1 -67 -2z"/>
<path d="M1600 488 l0 -98 58 0 c66 0 102 19 102 54 0 13 -7 29 -15 36 -11 9
-13 16 -5 24 14 14 13 51 -2 64 -7 5 -41 12 -76 14 l-62 3 0 -97z m120 57 c19
-23 -5 -45 -51 -45 -37 0 -39 2 -39 30 0 28 2 30 39 30 22 0 44 -6 51 -15z m9
-79 c21 -26 2 -44 -50 -48 l-49 -3 0 33 c0 31 1 32 44 32 25 0 48 -6 55 -14z"/>
<path d="M1809 585 c0 0 -1 -44 -2 -97 -2 -73 1 -98 10 -98 8 0 13 13 13 30 0
27 3 30 33 30 26 0 36 -6 50 -30 10 -16 25 -30 33 -30 19 0 18 7 -6 38 l-20
25 20 19 c24 22 26 55 5 85 -13 19 -58 28 -136 28z m109 -37 c7 -7 12 -22 12
-35 0 -25 -31 -43 -76 -43 -22 0 -24 4 -24 45 l0 45 38 0 c21 0 43 -5 50 -12z"/>
<path d="M2002 509 c3 -70 6 -83 27 -100 31 -25 85 -25 111 1 16 16 20 33 20
90 0 39 0 73 1 77 0 4 -4 9 -10 11 -7 2 -11 -20 -11 -63 0 -84 -11 -105 -53
-105 -48 0 -57 15 -57 97 0 60 -3 73 -16 73 -14 0 -16 -12 -12 -81z"/>
<path d="M2220 490 c0 -86 2 -100 16 -100 14 0 16 10 12 73 -4 56 -3 68 6 53
6 -10 24 -39 39 -64 l29 -45 19 31 c10 18 28 47 39 65 l20 32 0 -72 c0 -42 4
-73 10 -73 6 0 10 40 10 100 0 55 -4 100 -9 100 -5 0 -27 -32 -49 -71 l-39
-70 -43 70 c-23 39 -46 71 -51 71 -5 0 -9 -45 -9 -100z"/>
</g>
</svg>
